<?xml version="1.0" encoding="UTF-8" standalone="no"?>
<svg
   xmlns:dc="http://purl.org/dc/elements/1.1/"
   xmlns:cc="http://creativecommons.org/ns#"
   xmlns:rdf="http://www.w3.org/1999/02/22-rdf-syntax-ns#"
   xmlns:svg="http://www.w3.org/2000/svg"
   xmlns="http://www.w3.org/2000/svg"
   xmlns:sodipodi="http://sodipodi.sourceforge.net/DTD/sodipodi-0.dtd"
   xmlns:inkscape="http://www.inkscape.org/namespaces/inkscape"
   width="11cm"
   height="11cm"
   viewBox="8 2 218 213"
   version="1.1"
   id="svg119"
   sodipodi:docname="heap-refpersys.svg"
   inkscape:version="0.92.4 (5da689c313, 2019-01-14)">
  <metadata
     id="metadata123">
    <rdf:RDF>
      <cc:Work
         rdf:about="">
        <dc:format>image/svg+xml</dc:format>
        <dc:type
           rdf:resource="http://purl.org/dc/dcmitype/StillImage" />
        <dc:title></dc:title>
      </cc:Work>
    </rdf:RDF>
  </metadata>
  <sodipodi:namedview
     pagecolor="#ffffff"
     bordercolor="#666666"
     borderopacity="1"
     objecttolerance="10"
     gridtolerance="10"
     guidetolerance="10"
     inkscape:pageopacity="0"
     inkscape:pageshadow="2"
     inkscape:window-width="1908"
     inkscape:window-height="1015"
     id="namedview121"
     showgrid="true"
     inkscape:zoom="3.3683088"
     inkscape:cx="168.93425"
     inkscape:cy="215.80928"
     inkscape:window-x="3440"
     inkscape:window-y="28"
     inkscape:window-maximized="0"
     inkscape:current-layer="svg119">
    <inkscape:grid
       type="xygrid"
       id="grid182" />
  </sodipodi:namedview>
  <defs
     id="defs2" />
  <g
     id="g48">
    <g
       id="g6"
       transform="translate(1.59908,-0.667216)">
      <path
         inkscape:connector-curvature="0"
         id="path4"
         d="m 23.462,80.8758 c 0.4148,0.1008 0.7476,0.2858 0.9984,0.5548 0.2508,0.2662 0.3762,0.566 0.3762,0.8994 0,0.5212 -0.2332,0.9596 -0.6994,1.3154 -0.4662,0.353 -1.0162,0.5296 -1.6496,0.5296 -0.5402,0 -1.024,-0.1036 -1.4518,-0.311 l 0.1544,-0.5674 c 0.447,0.1822 0.889,0.2732 1.3264,0.2732 0.4116,0 0.762,-0.1106 1.0514,-0.332 0.2926,-0.2242 0.439,-0.5114 0.439,-0.8616 0,-0.3446 -0.156,-0.6248 -0.468,-0.8406 C 23.2272,81.3198 22.814,81.212 22.2996,81.212 H 22.0922 V 80.6446 H 22.15 c 0.4952,0 0.9036,-0.1008 1.2252,-0.3026 0.3214,-0.2046 0.4822,-0.4792 0.4822,-0.8238 0,-0.2802 -0.1158,-0.4988 -0.3472,-0.6556 -0.2316,-0.1598 -0.5498,-0.2396 -0.955,-0.2396 -0.3506,0 -0.7428,0.0826 -1.1768,0.248 l -0.1062,-0.5926 c 0.4374,-0.1738 0.8778,-0.2606 1.3216,-0.2606 0.6076,0 1.1076,0.1402 1.5,0.4202 0.3954,0.2774 0.5932,0.6348 0.5932,1.0718 0,0.3026 -0.1206,0.5856 -0.3618,0.849 -0.2378,0.2606 -0.5256,0.4244 -0.8632,0.4918 v 0.0252 m -6.8779,1.534 c -0.4694,0.199 -0.7041,0.374 -0.7041,0.5254 0,0.0812 0.053,0.1498 0.1591,0.206 0.1093,0.056 0.2573,0.084 0.4438,0.084 l 1.6929,-0.042 c 0.4019,0 0.7138,0.0854 0.9357,0.2562 0.225,0.171 0.3376,0.4134 0.3376,0.7272 0,0.496 -0.254,0.891 -0.7621,1.1852 -0.508,0.2942 -1.1013,0.4414 -1.7797,0.4414 -0.5563,0 -1.0113,-0.1024 -1.365,-0.307 -0.3537,-0.2016 -0.5305,-0.4636 -0.5305,-0.7858 0,-0.3502 0.2733,-0.6458 0.8199,-0.8868 -0.4533,-0.185 -0.68,-0.412 -0.68,-0.681 0,-0.3082 0.2926,-0.5954 0.8778,-0.8614 -0.2701,-0.143 -0.4775,-0.328 -0.6222,-0.5548 -0.1447,-0.227 -0.217,-0.4666 -0.217,-0.7188 0,-0.4118 0.1607,-0.7494 0.4823,-1.0128 0.3215,-0.2662 0.7234,-0.3994 1.2057,-0.3994 0.3473,0 0.6608,0.0632 0.9406,0.1892 l 1.4903,-0.1976 v 0.639 h -0.9598 c 0.1447,0.2212 0.217,0.4818 0.217,0.7816 0,0.398 -0.1591,0.7342 -0.4774,1.0088 -0.3184,0.2746 -0.7219,0.4118 -1.2107,0.4118 -0.1028,0 -0.2009,-0.0028 -0.2942,-0.0084 v 0 m 0.2942,-0.5002 c 0.2766,0 0.5017,-0.0826 0.6753,-0.248 0.1768,-0.168 0.2653,-0.3866 0.2653,-0.6556 0,-0.283 -0.0853,-0.5042 -0.2557,-0.664 -0.1704,-0.1598 -0.3987,-0.2396 -0.6849,-0.2396 -0.2668,0 -0.4919,0.084 -0.6752,0.2522 -0.1801,0.1654 -0.2701,0.3824 -0.2701,0.6514 0,0.2634 0.09,0.4806 0.2701,0.6514 0.1833,0.1682 0.4084,0.2522 0.6752,0.2522 v 0 m 0.029,3.375 c 0.4952,0 0.9164,-0.0966 1.2636,-0.29 0.3505,-0.1906 0.5258,-0.4274 0.5258,-0.7104 0,-0.2914 -0.2476,-0.437 -0.7428,-0.437 -0.164,0 -0.4469,0.0084 -0.8489,0.0252 -0.254,0.0112 -0.4533,0.0168 -0.598,0.0168 -0.0708,0 -0.1817,0.0504 -0.3328,0.1514 -0.1479,0.1008 -0.2621,0.2016 -0.3425,0.3026 -0.0771,0.1036 -0.1157,0.21 -0.1157,0.3194 0,0.1708 0.1093,0.3166 0.3279,0.437 0.2187,0.1234 0.5065,0.185 0.8634,0.185 v 0 M 13.3671,79.6822 11.462,84.0616 H 10.7771 L 8.8816,79.6822 h 0.81992 l 1.42278,3.4842 1.4229,-3.4842 h 0.8199 M 24.822,70.4234 h -3.7428 v -0.5002 c 0.9486,-0.9218 1.5644,-1.5396 1.8474,-1.8534 0.283,-0.3138 0.5128,-0.643 0.6896,-0.9878 0.177,-0.3446 0.2654,-0.6878 0.2654,-1.0296 0,-0.3306 -0.1158,-0.5912 -0.3474,-0.7818 -0.2282,-0.1904 -0.5498,-0.2858 -0.9646,-0.2858 -0.3182,0 -0.746,0.0856 -1.283,0.2564 l -0.1108,-0.5926 c 0.4854,-0.1792 0.9936,-0.269 1.524,-0.269 0.6078,0 1.0966,0.15 1.4662,0.4498 0.373,0.297 0.5596,0.6948 0.5596,1.1936 0,0.3558 -0.0964,0.7088 -0.2894,1.059 -0.1898,0.3504 -0.434,0.6866 -0.7332,1.0088 -0.299,0.3222 -0.881,0.8994 -1.7458,1.7316 h 2.8648 v 0.601 m -8.2234,-1.6518 c -0.4694,0.199 -0.7042,0.374 -0.7042,0.5254 0,0.0812 0.0531,0.1498 0.1592,0.206 0.1093,0.056 0.2572,0.084 0.4437,0.084 l 1.6929,-0.042 c 0.402,0 0.7139,0.0854 0.9357,0.2564 0.2251,0.1708 0.3376,0.4132 0.3376,0.727 0,0.496 -0.254,0.891 -0.762,1.1852 -0.508,0.2942 -1.1013,0.4414 -1.7797,0.4414 -0.5563,0 -1.0113,-0.1024 -1.365,-0.3068 -0.3537,-0.2018 -0.5305,-0.4638 -0.5305,-0.786 0,-0.3502 0.2733,-0.6458 0.8199,-0.8868 -0.4534,-0.185 -0.6801,-0.4118 -0.6801,-0.6808 0,-0.3082 0.2926,-0.5954 0.8778,-0.8616 -0.27,-0.143 -0.4774,-0.3278 -0.6221,-0.5548 -0.1447,-0.227 -0.2171,-0.4666 -0.2171,-0.7188 0,-0.4118 0.1608,-0.7494 0.4823,-1.0128 0.3216,-0.2662 0.7235,-0.3992 1.2058,-0.3992 0.3473,0 0.6608,0.063 0.9405,0.189 l 1.4904,-0.1974 v 0.6388 h -0.9598 c 0.1447,0.2212 0.217,0.4818 0.217,0.7816 0,0.398 -0.1591,0.7342 -0.4775,1.0088 -0.3183,0.2746 -0.7218,0.4118 -1.2106,0.4118 -0.1029,0 -0.2009,-0.0028 -0.2942,-0.0084 v 0 m 0.2942,-0.5002 c 0.2765,0 0.5016,-0.0826 0.6753,-0.2478 0.1768,-0.1682 0.2652,-0.3868 0.2652,-0.6558 0,-0.283 -0.0852,-0.5042 -0.2556,-0.664 -0.1704,-0.1596 -0.3987,-0.2396 -0.6849,-0.2396 -0.2669,0 -0.4919,0.0842 -0.6752,0.2522 -0.1801,0.1654 -0.2701,0.3824 -0.2701,0.6514 0,0.2634 0.09,0.4806 0.2701,0.6516 0.1833,0.168 0.4083,0.252 0.6752,0.252 v 0 m 0.029,3.375 c 0.4951,0 0.9164,-0.0966 1.2636,-0.29 0.3505,-0.1906 0.5257,-0.4272 0.5257,-0.7102 0,-0.2914 -0.2476,-0.4372 -0.7427,-0.4372 -0.164,0 -0.447,0.0084 -0.8489,0.0252 -0.254,0.0112 -0.4534,0.0168 -0.5981,0.0168 -0.0707,0 -0.1816,0.0504 -0.3328,0.1514 -0.1479,0.1008 -0.262,0.2016 -0.3424,0.3026 -0.0772,0.1036 -0.1158,0.21 -0.1158,0.3194 0,0.1708 0.1094,0.3166 0.328,0.437 0.2187,0.1234 0.5064,0.185 0.8634,0.185 v 0 M 13.3816,66.044 11.4764,70.4234 H 10.7916 L 8.89606,66.044 H 9.716 l 1.4228,3.4842 1.4228,-3.4842 h 0.82 m 11.5296,-9.2988 h -3.5786 v -0.601 h 1.442 V 51.538 l -1.36,0.5926 v -0.6894 l 1.471,-0.6598 h 0.68 v 5.3628 h 1.3456 v 0.601 m -8.4018,-1.6516 c -0.4695,0.1988 -0.7042,0.374 -0.7042,0.5252 0,0.0814 0.0531,0.15 0.1592,0.206 0.1093,0.056 0.2572,0.084 0.4437,0.084 l 1.6929,-0.042 c 0.4019,0 0.7138,0.0856 0.9357,0.2564 0.2251,0.171 0.3376,0.4134 0.3376,0.7272 0,0.4958 -0.254,0.891 -0.762,1.1852 -0.5081,0.2942 -1.1013,0.4412 -1.7798,0.4412 -0.5562,0 -1.0112,-0.1022 -1.3649,-0.3068 -0.3537,-0.2018 -0.5306,-0.4636 -0.5306,-0.786 0,-0.3502 0.2733,-0.6458 0.82,-0.8868 -0.4534,-0.1848 -0.6801,-0.4118 -0.6801,-0.6808 0,-0.3082 0.2926,-0.5954 0.8778,-0.8616 C 15.6846,54.812 15.4772,54.627 15.3325,54.4 c -0.1447,-0.2268 -0.217,-0.4664 -0.217,-0.7186 0,-0.412 0.1608,-0.7496 0.4823,-1.013 0.3215,-0.2662 0.7235,-0.3992 1.2058,-0.3992 0.3473,0 0.6608,0.063 0.9405,0.1892 l 1.4903,-0.1976 v 0.6388 h -0.9598 c 0.1447,0.2214 0.2171,0.482 0.2171,0.7818 0,0.3978 -0.1592,0.734 -0.4775,1.0086 -0.3183,0.2746 -0.7219,0.412 -1.2106,0.412 -0.1029,0 -0.201,-0.0028 -0.2942,-0.0084 v 0 m 0.2942,-0.5002 c 0.2765,0 0.5016,-0.0826 0.6752,-0.248 0.1769,-0.168 0.2653,-0.3866 0.2653,-0.6556 0,-0.283 -0.0852,-0.5044 -0.2556,-0.664 -0.1704,-0.1598 -0.3987,-0.2396 -0.6849,-0.2396 -0.2669,0 -0.492,0.084 -0.6752,0.2522 -0.1801,0.1652 -0.2701,0.3824 -0.2701,0.6514 0,0.2634 0.09,0.4806 0.2701,0.6514 0.1832,0.1682 0.4083,0.2522 0.6752,0.2522 m 0.0289,3.3748 c 0.4952,0 0.9164,-0.0966 1.2637,-0.2898 0.3505,-0.1906 0.5257,-0.4274 0.5257,-0.7104 0,-0.2914 -0.2476,-0.437 -0.7428,-0.437 -0.1639,0 -0.4469,0.0084 -0.8488,0.0252 -0.254,0.0112 -0.4534,0.0168 -0.5981,0.0168 -0.0707,0 -0.1817,0.0504 -0.3328,0.1512 -0.1479,0.101 -0.262,0.2018 -0.3424,0.3026 -0.0772,0.1038 -0.1158,0.2102 -0.1158,0.3194 0,0.171 0.1093,0.3166 0.328,0.4372 0.2186,0.1232 0.5064,0.1848 0.8633,0.1848 v 0 m -3.5402,-5.6024 -1.9051,4.3794 H 10.7023 L 8.80684,52.3658 h 0.81992 l 1.42284,3.4842 1.4228,-3.4842 z"
         style="fill:#800000;fill-opacity:1;fill-rule:evenodd;stroke:#ffffff;stroke-width:0.49397001;stroke-opacity:0" />
    </g>
    <text
       id="text12"
       y="15.8828"
       x="30.662001"
       style="font-style:italic;font-weight:normal;font-size:11.28890038px;font-family:sans-serif;text-anchor:middle;fill:#000000;fill-opacity:1;stroke:none"
       font-size="11.2889">
      <tspan
         id="tspan8"
         y="15.8828"
         x="30.662001">global</tspan>
      <tspan
         id="tspan10"
         y="29.9939"
         x="30.662001">roots</tspan>
    </text>
    <text
       id="text18"
       y="109.135"
       x="38.231602"
       style="font-style:italic;font-weight:normal;font-size:11.28890038px;font-family:sans-serif;text-anchor:middle;fill:#000000;fill-opacity:1;stroke:none"
       font-size="11.2889">
      <tspan
         id="tspan14"
         y="109.135"
         x="38.231602">transient</tspan>
      <tspan
         id="tspan16"
         y="123.246"
         x="38.231602">roots</tspan>
    </text>
    <text
       id="text22"
       y="152.20599"
       x="9.4106197"
       style="font-style:italic;font-weight:normal;font-size:7.90221977px;font-family:'Courier New';text-anchor:start;fill:#ff6600;fill-opacity:1;stroke:none"
       font-size="7.90222">
      <tspan
         id="tspan20"
         y="152.20599"
         x="9.4106197">vt1</tspan>
    </text>
    <text
       id="text26"
       y="167.155"
       x="9.0199404"
       style="font-style:italic;font-weight:normal;font-size:7.90221977px;font-family:'Courier New';text-anchor:start;fill:#ff6600;fill-opacity:1;stroke:none"
       font-size="7.90222">
      <tspan
         id="tspan24"
         y="167.155"
         x="9.0199404">vt2</tspan>
    </text>
    <text
       id="text30"
       y="182.104"
       x="9.0054798"
       style="font-style:italic;font-weight:normal;font-size:7.90221977px;font-family:'Courier New';text-anchor:start;fill:#ff6600;fill-opacity:1;stroke:none"
       font-size="7.90222">
      <tspan
         id="tspan28"
         y="182.104"
         x="9.0054798">vt3</tspan>
    </text>
    <text
       id="text34"
       y="197.05299"
       x="9.1598196"
       style="font-style:italic;font-weight:normal;font-size:7.90221977px;font-family:'Courier New';text-anchor:start;fill:#ff6600;fill-opacity:1;stroke:none"
       font-size="7.90222">
      <tspan
         id="tspan32"
         y="197.05299"
         x="9.1598196">vt4</tspan>
    </text>
    <text
       id="text38"
       y="212.002"
       x="8.9958401"
       style="font-style:italic;font-weight:normal;font-size:7.90221977px;font-family:'Courier New';text-anchor:start;fill:#ff6600;fill-opacity:1;stroke:none"
       font-size="7.90222">
      <tspan
         id="tspan36"
         y="212.002"
         x="8.9958401">vt5</tspan>
    </text>
    <text
       id="text42"
       y="56.691601"
       x="32.808399"
       style="font-style:italic;font-weight:normal;font-size:7.90221977px;font-family:Verdana;text-anchor:start;fill:#0000ff;fill-opacity:1;stroke:none"
       font-size="7.90222">
      <tspan
         id="tspan40"
         y="56.691601"
         x="32.808399">#123</tspan>
    </text>
    <text
       id="text46"
       y="212.002"
       x="33.337399"
       style="font-style:normal;font-weight:normal;font-size:7.90221977px;font-family:'Andale Mono';text-anchor:start;fill:#0000ff;fill-opacity:1;stroke:none"
       font-size="7.90222">
      <tspan
         id="tspan44"
         y="212.002"
         x="33.337399">#-17</tspan>
    </text>
  </g>
  <g
     id="g56"
     transform="matrix(0.5,0,0,0.5,40.128875,36.161243)">
    <path
       inkscape:connector-curvature="0"
       id="path50"
       d="m 129.754,32.3332 h 30.15 c 4.163,0 7.538,4.9249 7.538,11 0,6.0751 -3.375,11 -7.538,11 h -30.15 c -4.163,0 -7.537,-4.9249 -7.537,-11 0,-6.0751 3.374,-11 7.537,-11 z"
       style="fill:#ffffff;fill-opacity:1;fill-rule:evenodd;stroke:#000000;stroke-width:2;stroke-opacity:1" />
    <text
       id="text54"
       y="47.333199"
       x="144.82899"
       style="font-style:normal;font-weight:normal;font-size:12.80000019px;font-family:sans-serif;text-anchor:middle;fill:#000000;fill-opacity:1;stroke:none"
       font-size="12.8">
      <tspan
         id="tspan52"
         y="47.333199"
         x="144.82899">ob1</tspan>
    </text>
  </g>
  <text
     id="text60"
     y="45.333199"
     x="142.16299"
     style="font-style:normal;font-weight:normal;font-size:12.80000019px;font-family:sans-serif;text-anchor:start;fill:#000000;fill-opacity:1;stroke:none"
     font-size="12.8">
    <tspan
       id="tspan58"
       y="45.333199"
       x="142.16299" />
  </text>
  <g
     id="g68"
     transform="matrix(0.5,0,0,0.5,32.519618,20.285089)">
    <path
       inkscape:connector-curvature="0"
       id="path62"
       d="m 186.921,11.6499 h 30.15 c 4.163,0 7.537,4.9249 7.537,11 0,6.0752 -3.374,11 -7.537,11 h -30.15 c -4.163,0 -7.538,-4.9248 -7.538,-11 0,-6.0751 3.375,-11 7.538,-11 z"
       style="fill:#ffffff;fill-opacity:1;fill-rule:evenodd;stroke:#000000;stroke-width:2;stroke-opacity:1" />
    <text
       id="text66"
       y="26.6499"
       x="201.996"
       style="font-style:normal;font-weight:normal;font-size:12.80000019px;font-family:sans-serif;text-anchor:middle;fill:#000000;fill-opacity:1;stroke:none"
       font-size="12.8">
      <tspan
         id="tspan64"
         y="26.6499"
         x="201.996">ob2</tspan>
    </text>
  </g>
  <g
     id="g80"
     transform="matrix(0.5,0,0,0.5,41.4146,12.075)">
    <rect
       id="rect70"
       ry="0"
       rx="0"
       height="40"
       width="40"
       y="4.1500001"
       x="62.829201"
       style="fill:#ffffff;fill-opacity:1;stroke:#000000;stroke-width:2;stroke-opacity:1" />
    <line
       id="line72"
       y2="44.150002"
       x2="66.829201"
       y1="4.1500001"
       x1="66.829201"
       style="fill:none;stroke:#000000;stroke-width:2;stroke-opacity:1" />
    <line
       id="line74"
       y2="44.150002"
       x2="98.829201"
       y1="4.1500001"
       x1="98.829201"
       style="fill:none;stroke:#000000;stroke-width:2;stroke-opacity:1" />
    <text
       id="text78"
       y="28.15"
       x="82.829201"
       style="font-style:normal;font-weight:normal;font-size:12.80000019px;font-family:sans-serif;text-anchor:middle;fill:#000000;fill-opacity:1;stroke:none"
       font-size="12.8">
      <tspan
         id="tspan76"
         y="28.15"
         x="82.829201">iv1</tspan>
    </text>
  </g>
  <g
     id="g92"
     transform="matrix(0.5,0,0,0.5,42.642182,31.047508)">
    <rect
       id="rect82"
       ry="0"
       rx="0"
       height="40"
       width="40"
       y="65.483398"
       x="177.16299"
       style="fill:#ffffff;fill-opacity:1;stroke:#000000;stroke-width:2;stroke-opacity:1" />
    <line
       id="line84"
       y2="105.483"
       x2="181.16299"
       y1="65.483398"
       x1="181.16299"
       style="fill:none;stroke:#000000;stroke-width:2;stroke-opacity:1" />
    <line
       id="line86"
       y2="105.483"
       x2="213.16299"
       y1="65.483398"
       x1="213.16299"
       style="fill:none;stroke:#000000;stroke-width:2;stroke-opacity:1" />
    <text
       id="text90"
       y="89.483398"
       x="197.16299"
       style="font-style:normal;font-weight:normal;font-size:12.80000019px;font-family:sans-serif;text-anchor:middle;fill:#000000;fill-opacity:1;stroke:none"
       font-size="12.8">
      <tspan
         id="tspan88"
         y="89.483398"
         x="197.16299">iv2</tspan>
    </text>
  </g>
  <text
     id="text96"
     y="90.833397"
     x="122.663"
     style="font-style:normal;font-weight:normal;font-size:12.80000019px;font-family:sans-serif;text-anchor:start;fill:#000000;fill-opacity:1;stroke:none"
     font-size="12.8">
    <tspan
       id="tspan94"
       y="90.833397"
       x="122.663" />
  </text>
  <g
     id="g108"
     transform="matrix(0.5,0,0,0.5,37.988812,38.145645)">
    <rect
       id="rect98"
       ry="0"
       rx="0"
       height="40"
       width="40"
       y="80.800003"
       x="93.329201"
       style="fill:#ffffff;fill-opacity:1;stroke:#000000;stroke-width:2;stroke-opacity:1" />
    <line
       id="line100"
       y2="120.8"
       x2="97.329201"
       y1="80.800003"
       x1="97.329201"
       style="fill:none;stroke:#000000;stroke-width:2;stroke-opacity:1" />
    <line
       id="line102"
       y2="120.8"
       x2="129.32899"
       y1="80.800003"
       x1="129.32899"
       style="fill:none;stroke:#000000;stroke-width:2;stroke-opacity:1" />
    <text
       id="text106"
       y="104.8"
       x="113.329"
       style="font-style:normal;font-weight:normal;font-size:12.80000019px;font-family:sans-serif;text-anchor:middle;fill:#000000;fill-opacity:1;stroke:none"
       font-size="12.8">
      <tspan
         id="tspan104"
         y="104.8"
         x="113.329">iv3</tspan>
    </text>
  </g>
  <g
     id="g116"
     transform="matrix(0.5,0,0,0.5,61.230142,29.55817)">
    <path
       inkscape:connector-curvature="0"
       id="path110"
       d="m 132.754,145.167 h 43.938 c -6.591,8 -8.788,12 -8.788,20 0,8 2.197,12 8.788,20 h -43.938 c -6.591,-8 -8.787,-12 -8.787,-20 0,-8 2.196,-12 8.787,-20 z"
       style="fill:#ffffff;fill-opacity:1;fill-rule:evenodd;stroke:#000000;stroke-width:2;stroke-opacity:1" />
    <text
       id="text114"
       y="169.16701"
       x="150.32899"
       style="font-style:normal;font-weight:normal;font-size:12.80000019px;font-family:sans-serif;text-anchor:middle;fill:#000000;fill-opacity:1;stroke:none"
       font-size="12.8">
      <tspan
         id="tspan112"
         y="169.16701"
         x="150.32899">tob1</tspan>
    </text>
  </g>
  <g
     id="g200">
    <path
       style="fill:#ffffff;fill-opacity:1;fill-rule:evenodd;stroke:#000000;stroke-width:1;stroke-opacity:1"
       d="m 102.38409,36.59716 h 15.075 c 2.0815,0 3.7685,2.46245 3.7685,5.5 0,3.0376 -1.687,5.5 -3.7685,5.5 h -15.075 c -2.0815,0 -3.768996,-2.4624 -3.768996,-5.5 0,-3.03755 1.687496,-5.5 3.768996,-5.5 z"
       id="path184"
       inkscape:connector-curvature="0" />
    <text
       font-size="12.8"
       style="font-style:normal;font-weight:normal;font-size:6.40001094px;font-family:sans-serif;text-anchor:middle;fill:#000000;fill-opacity:1;stroke:none;stroke-width:0.5;-inkscape-font-specification:'sans-serif, Normal';font-stretch:normal;font-variant:normal;text-align:center;writing-mode:lr;font-variant-ligatures:normal;font-variant-caps:normal;font-variant-numeric:normal;font-feature-settings:normal;"
       x="109.92159"
       y="44.09716"
       id="text188">
      <tspan
         id="tspan195"
         sodipodi:role="line">ob3</tspan>
    </text>
  </g>
  <rect
     style="fill:none;fill-opacity:1;stroke:#000000;stroke-width:5.74727294;stroke-miterlimit:4;stroke-dasharray:none;stroke-opacity:0"
     id="rect1009"
     width="24.906914"
     height="14.419792"
     x="91.241524"
     y="135.56938" />
  <rect
     style="fill:none;fill-opacity:1;stroke:#000000;stroke-width:5.74727249;stroke-miterlimit:4;stroke-dasharray:none;stroke-opacity:0"
     id="rect880"
     width="15.730682"
     height="10.487122"
     x="63.057388"
     y="99.51989" />
  <rect
     style="fill:none;fill-opacity:1;stroke:#000000;stroke-width:5.9454546;stroke-linejoin:bevel;stroke-miterlimit:4;stroke-dasharray:none;stroke-opacity:0"
     id="rect887"
     width="26.217804"
     height="13.108902"
     x="84.031631"
     y="110.00701" />
  <g
     id="Background"
     transform="matrix(0.10487122,0,0,0.10487122,-0.28483135,102.66602)">
    <polygon
       id="polygon908"
       points="1304,281 1472,350.5 1304,420 968,420 968,281 "
       style="fill:#ffffff;fill-opacity:1;fill-rule:evenodd;stroke:#000000;stroke-width:2;stroke-opacity:1" />
  </g>
  <text
     xml:space="preserve"
     style="font-style:normal;font-variant:normal;font-weight:normal;font-stretch:normal;font-size:9.78798008px;line-height:1.25;font-family:Arial;-inkscape-font-specification:Arial;font-variant-ligatures:normal;font-variant-caps:normal;font-variant-numeric:normal;font-feature-settings:normal;text-align:start;letter-spacing:0px;word-spacing:0px;writing-mode:lr-tb;text-anchor:start;fill:#000000;fill-opacity:1;stroke:none;stroke-width:0.52435607"
     x="102.15443"
     y="142.24673"
     id="text923"><tspan
       sodipodi:role="line"
       id="tspan921"
       x="102.15443"
       y="142.24673"
       style="stroke-width:0.52435607">str1 <tspan
   style="font-style:normal;font-variant:normal;font-weight:normal;font-stretch:normal;font-size:8.38969707px;font-family:'Courier New';-inkscape-font-specification:'Courier New, Normal';font-variant-ligatures:normal;font-variant-caps:normal;font-variant-numeric:normal;font-feature-settings:normal;text-align:start;writing-mode:lr-tb;text-anchor:start;fill:#a02c2c"
   id="tspan925">&quot;abc&quot;</tspan></tspan></text>
</svg>
