<?xml version="1.0" encoding="UTF-8" standalone="no"?>
<!DOCTYPE svg PUBLIC "-//W3C//DTD SVG 1.0//EN" "http://www.w3.org/TR/2001/PR-SVG-20010719/DTD/svg10.dtd">
<svg width="11cm" height="11cm" viewBox="8 2 218 213" xmlns="http://www.w3.org/2000/svg" xmlns:xlink="http://www.w3.org/1999/xlink">
  <defs/>
  <g id="Background">
    <g>
      <g transform="matrix(1,0,0,1,1.59908,-0.667216)">
        <path style="fill: #800000; fill-opacity: 1; stroke-opacity: 0; stroke-width: 0.49397; stroke: #ffffff" fill-rule="evenodd" d="M 23.462 80.8758 C 23.8768,80.9766 24.2096,81.1616 24.4604,81.4306 C 24.7112,81.6968 24.8366,81.9966 24.8366,82.33 C 24.8366,82.8512 24.6034,83.2896 24.1372,83.6454 C 23.671,83.9984 23.121,84.175 22.4876,84.175 C 21.9474,84.175 21.4636,84.0714 21.0358,83.864 L 21.1902,83.2966 C 21.6372,83.4788 22.0792,83.5698 22.5166,83.5698 C 22.9282,83.5698 23.2786,83.4592 23.568,83.2378 C 23.8606,83.0136 24.007,82.7264 24.007,82.3762 C 24.007,82.0316 23.851,81.7514 23.539,81.5356 C 23.2272,81.3198 22.814,81.212 22.2996,81.212 L 22.0922,81.212 L 22.0922,80.6446 L 22.15,80.6446 C 22.6452,80.6446 23.0536,80.5438 23.3752,80.342 C 23.6966,80.1374 23.8574,79.8628 23.8574,79.5182 C 23.8574,79.238 23.7416,79.0194 23.5102,78.8626 C 23.2786,78.7028 22.9604,78.623 22.5552,78.623 C 22.2046,78.623 21.8124,78.7056 21.3784,78.871 L 21.2722,78.2784 C 21.7096,78.1046 22.15,78.0178 22.5938,78.0178 C 23.2014,78.0178 23.7014,78.158 24.0938,78.438 C 24.4892,78.7154 24.687,79.0728 24.687,79.5098 C 24.687,79.8124 24.5664,80.0954 24.3252,80.3588 C 24.0874,80.6194 23.7996,80.7832 23.462,80.8506 L 23.462,80.8758M 16.5841 82.4098 C 16.1147,82.6088 15.88,82.7838 15.88,82.9352 C 15.88,83.0164 15.933,83.085 16.0391,83.1412 C 16.1484,83.1972 16.2964,83.2252 16.4829,83.2252 L 18.1758,83.1832 C 18.5777,83.1832 18.8896,83.2686 19.1115,83.4394 C 19.3365,83.6104 19.4491,83.8528 19.4491,84.1666 C 19.4491,84.6626 19.1951,85.0576 18.687,85.3518 C 18.179,85.646 17.5857,85.7932 16.9073,85.7932 C 16.351,85.7932 15.896,85.6908 15.5423,85.4862 C 15.1886,85.2846 15.0118,85.0226 15.0118,84.7004 C 15.0118,84.3502 15.2851,84.0546 15.8317,83.8136 C 15.3784,83.6286 15.1517,83.4016 15.1517,83.1326 C 15.1517,82.8244 15.4443,82.5372 16.0295,82.2712 C 15.7594,82.1282 15.552,81.9432 15.4073,81.7164 C 15.2626,81.4894 15.1903,81.2498 15.1903,80.9976 C 15.1903,80.5858 15.351,80.2482 15.6726,79.9848 C 15.9941,79.7186 16.396,79.5854 16.8783,79.5854 C 17.2256,79.5854 17.5391,79.6486 17.8189,79.7746 L 19.3092,79.577 L 19.3092,80.216 L 18.3494,80.216 C 18.4941,80.4372 18.5664,80.6978 18.5664,80.9976 C 18.5664,81.3956 18.4073,81.7318 18.089,82.0064 C 17.7706,82.281 17.3671,82.4182 16.8783,82.4182 C 16.7755,82.4182 16.6774,82.4154 16.5841,82.4098 L 16.5841,82.4098M 16.8783 81.9096 C 17.1549,81.9096 17.38,81.827 17.5536,81.6616 C 17.7304,81.4936 17.8189,81.275 17.8189,81.006 C 17.8189,80.723 17.7336,80.5018 17.5632,80.342 C 17.3928,80.1822 17.1645,80.1024 16.8783,80.1024 C 16.6115,80.1024 16.3864,80.1864 16.2031,80.3546 C 16.023,80.52 15.933,80.737 15.933,81.006 C 15.933,81.2694 16.023,81.4866 16.2031,81.6574 C 16.3864,81.8256 16.6115,81.9096 16.8783,81.9096 L 16.8783,81.9096M 16.9073 85.2846 C 17.4025,85.2846 17.8237,85.188 18.1709,84.9946 C 18.5214,84.804 18.6967,84.5672 18.6967,84.2842 C 18.6967,83.9928 18.4491,83.8472 17.9539,83.8472 C 17.7899,83.8472 17.507,83.8556 17.105,83.8724 C 16.851,83.8836 16.6517,83.8892 16.507,83.8892 C 16.4362,83.8892 16.3253,83.9396 16.1742,84.0406 C 16.0263,84.1414 15.9121,84.2422 15.8317,84.3432 C 15.7546,84.4468 15.716,84.5532 15.716,84.6626 C 15.716,84.8334 15.8253,84.9792 16.0439,85.0996 C 16.2626,85.223 16.5504,85.2846 16.9073,85.2846 L 16.9073,85.2846M 13.3671 79.6822 L 11.462,84.0616 L 10.7771,84.0616 L 8.8816,79.6822 L 9.70152,79.6822 L 11.1243,83.1664 L 12.5472,79.6822 L 13.3671,79.6822M 24.822 70.4234 L 21.0792,70.4234 L 21.0792,69.9232 C 22.0278,69.0014 22.6436,68.3836 22.9266,68.0698 C 23.2096,67.756 23.4394,67.4268 23.6162,67.082 C 23.7932,66.7374 23.8816,66.3942 23.8816,66.0524 C 23.8816,65.7218 23.7658,65.4612 23.5342,65.2706 C 23.306,65.0802 22.9844,64.9848 22.5696,64.9848 C 22.2514,64.9848 21.8236,65.0704 21.2866,65.2412 L 21.1758,64.6486 C 21.6612,64.4694 22.1694,64.3796 22.6998,64.3796 C 23.3076,64.3796 23.7964,64.5296 24.166,64.8294 C 24.539,65.1264 24.7256,65.5242 24.7256,66.023 C 24.7256,66.3788 24.6292,66.7318 24.4362,67.082 C 24.2464,67.4324 24.0022,67.7686 23.703,68.0908 C 23.404,68.413 22.822,68.9902 21.9572,69.8224 L 24.822,69.8224 L 24.822,70.4234M 16.5986 68.7716 C 16.1292,68.9706 15.8944,69.1456 15.8944,69.297 C 15.8944,69.3782 15.9475,69.4468 16.0536,69.503 C 16.1629,69.559 16.3108,69.587 16.4973,69.587 L 18.1902,69.545 C 18.5922,69.545 18.9041,69.6304 19.1259,69.8014 C 19.351,69.9722 19.4635,70.2146 19.4635,70.5284 C 19.4635,71.0244 19.2095,71.4194 18.7015,71.7136 C 18.1935,72.0078 17.6002,72.155 16.9218,72.155 C 16.3655,72.155 15.9105,72.0526 15.5568,71.8482 C 15.2031,71.6464 15.0263,71.3844 15.0263,71.0622 C 15.0263,70.712 15.2996,70.4164 15.8462,70.1754 C 15.3928,69.9904 15.1661,69.7636 15.1661,69.4946 C 15.1661,69.1864 15.4587,68.8992 16.0439,68.633 C 15.7739,68.49 15.5665,68.3052 15.4218,68.0782 C 15.2771,67.8512 15.2047,67.6116 15.2047,67.3594 C 15.2047,66.9476 15.3655,66.61 15.687,66.3466 C 16.0086,66.0804 16.4105,65.9474 16.8928,65.9474 C 17.2401,65.9474 17.5536,66.0104 17.8333,66.1364 L 19.3237,65.939 L 19.3237,66.5778 L 18.3639,66.5778 C 18.5086,66.799 18.5809,67.0596 18.5809,67.3594 C 18.5809,67.7574 18.4218,68.0936 18.1034,68.3682 C 17.7851,68.6428 17.3816,68.78 16.8928,68.78 C 16.7899,68.78 16.6919,68.7772 16.5986,68.7716 L 16.5986,68.7716M 16.8928 68.2714 C 17.1693,68.2714 17.3944,68.1888 17.5681,68.0236 C 17.7449,67.8554 17.8333,67.6368 17.8333,67.3678 C 17.8333,67.0848 17.7481,66.8636 17.5777,66.7038 C 17.4073,66.5442 17.179,66.4642 16.8928,66.4642 C 16.6259,66.4642 16.4009,66.5484 16.2176,66.7164 C 16.0375,66.8818 15.9475,67.0988 15.9475,67.3678 C 15.9475,67.6312 16.0375,67.8484 16.2176,68.0194 C 16.4009,68.1874 16.6259,68.2714 16.8928,68.2714 L 16.8928,68.2714M 16.9218 71.6464 C 17.4169,71.6464 17.8382,71.5498 18.1854,71.3564 C 18.5359,71.1658 18.7111,70.9292 18.7111,70.6462 C 18.7111,70.3548 18.4635,70.209 17.9684,70.209 C 17.8044,70.209 17.5214,70.2174 17.1195,70.2342 C 16.8655,70.2454 16.6661,70.251 16.5214,70.251 C 16.4507,70.251 16.3398,70.3014 16.1886,70.4024 C 16.0407,70.5032 15.9266,70.604 15.8462,70.705 C 15.769,70.8086 15.7304,70.915 15.7304,71.0244 C 15.7304,71.1952 15.8398,71.341 16.0584,71.4614 C 16.2771,71.5848 16.5648,71.6464 16.9218,71.6464 L 16.9218,71.6464M 13.3816 66.044 L 11.4764,70.4234 L 10.7916,70.4234 L 8.89606,66.044 L 9.716,66.044 L 11.1388,69.5282 L 12.5616,66.044 L 13.3816,66.044M 24.9112 56.7452 L 21.3326,56.7452 L 21.3326,56.1442 L 22.7746,56.1442 L 22.7746,51.538 L 21.4146,52.1306 L 21.4146,51.4412 L 22.8856,50.7814 L 23.5656,50.7814 L 23.5656,56.1442 L 24.9112,56.1442 L 24.9112,56.7452M 16.5094 55.0936 C 16.0399,55.2924 15.8052,55.4676 15.8052,55.6188 C 15.8052,55.7002 15.8583,55.7688 15.9644,55.8248 C 16.0737,55.8808 16.2216,55.9088 16.4081,55.9088 L 18.101,55.8668 C 18.5029,55.8668 18.8148,55.9524 19.0367,56.1232 C 19.2618,56.2942 19.3743,56.5366 19.3743,56.8504 C 19.3743,57.3462 19.1203,57.7414 18.6123,58.0356 C 18.1042,58.3298 17.511,58.4768 16.8325,58.4768 C 16.2763,58.4768 15.8213,58.3746 15.4676,58.17 C 15.1139,57.9682 14.937,57.7064 14.937,57.384 C 14.937,57.0338 15.2103,56.7382 15.757,56.4972 C 15.3036,56.3124 15.0769,56.0854 15.0769,55.8164 C 15.0769,55.5082 15.3695,55.221 15.9547,54.9548 C 15.6846,54.812 15.4772,54.627 15.3325,54.4 C 15.1878,54.1732 15.1155,53.9336 15.1155,53.6814 C 15.1155,53.2694 15.2763,52.9318 15.5978,52.6684 C 15.9193,52.4022 16.3213,52.2692 16.8036,52.2692 C 17.1509,52.2692 17.4644,52.3322 17.7441,52.4584 L 19.2344,52.2608 L 19.2344,52.8996 L 18.2746,52.8996 C 18.4193,53.121 18.4917,53.3816 18.4917,53.6814 C 18.4917,54.0792 18.3325,54.4154 18.0142,54.69 C 17.6959,54.9646 17.2923,55.102 16.8036,55.102 C 16.7007,55.102 16.6026,55.0992 16.5094,55.0936 L 16.5094,55.0936M 16.8036 54.5934 C 17.0801,54.5934 17.3052,54.5108 17.4788,54.3454 C 17.6557,54.1774 17.7441,53.9588 17.7441,53.6898 C 17.7441,53.4068 17.6589,53.1854 17.4885,53.0258 C 17.3181,52.866 17.0898,52.7862 16.8036,52.7862 C 16.5367,52.7862 16.3116,52.8702 16.1284,53.0384 C 15.9483,53.2036 15.8583,53.4208 15.8583,53.6898 C 15.8583,53.9532 15.9483,54.1704 16.1284,54.3412 C 16.3116,54.5094 16.5367,54.5934 16.8036,54.5934M 16.8325 57.9682 C 17.3277,57.9682 17.7489,57.8716 18.0962,57.6784 C 18.4467,57.4878 18.6219,57.251 18.6219,56.968 C 18.6219,56.6766 18.3743,56.531 17.8791,56.531 C 17.7152,56.531 17.4322,56.5394 17.0303,56.5562 C 16.7763,56.5674 16.5769,56.573 16.4322,56.573 C 16.3615,56.573 16.2505,56.6234 16.0994,56.7242 C 15.9515,56.8252 15.8374,56.926 15.757,57.0268 C 15.6798,57.1306 15.6412,57.237 15.6412,57.3462 C 15.6412,57.5172 15.7505,57.6628 15.9692,57.7834 C 16.1878,57.9066 16.4756,57.9682 16.8325,57.9682 L 16.8325,57.9682M 13.2923 52.3658 L 11.3872,56.7452 L 10.7023,56.7452 L 8.80684,52.3658 L 9.62676,52.3658 L 11.0496,55.85 L 12.4724,52.3658 L 13.2923,52.3658z"/>
      </g>
      <text font-size="11.2889" style="fill: #000000; fill-opacity: 1; stroke: none;text-anchor:middle;font-family:sans-serif;font-style:italic;font-weight:normal" x="30.662" y="15.8828">
        <tspan x="30.662" y="15.8828">global </tspan>
        <tspan x="30.662" y="29.9939">roots</tspan>
      </text>
      <text font-size="11.2889" style="fill: #000000; fill-opacity: 1; stroke: none;text-anchor:middle;font-family:sans-serif;font-style:italic;font-weight:normal" x="38.2316" y="109.135">
        <tspan x="38.2316" y="109.135">transient </tspan>
        <tspan x="38.2316" y="123.246">roots</tspan>
      </text>
      <text font-size="7.90222" style="fill: #ff6600; fill-opacity: 1; stroke: none;text-anchor:start;font-family: Courier New;font-style:italic;font-weight:normal" x="9.41062" y="152.206">
        <tspan x="9.41062" y="152.206">vt1</tspan>
      </text>
      <text font-size="7.90222" style="fill: #ff6600; fill-opacity: 1; stroke: none;text-anchor:start;font-family: Courier New;font-style:italic;font-weight:normal" x="9.01994" y="167.155">
        <tspan x="9.01994" y="167.155">vt2</tspan>
      </text>
      <text font-size="7.90222" style="fill: #ff6600; fill-opacity: 1; stroke: none;text-anchor:start;font-family: Courier New;font-style:italic;font-weight:normal" x="9.00548" y="182.104">
        <tspan x="9.00548" y="182.104">vt3</tspan>
      </text>
      <text font-size="7.90222" style="fill: #ff6600; fill-opacity: 1; stroke: none;text-anchor:start;font-family: Courier New;font-style:italic;font-weight:normal" x="9.15982" y="197.053">
        <tspan x="9.15982" y="197.053">vt4</tspan>
      </text>
      <text font-size="7.90222" style="fill: #ff6600; fill-opacity: 1; stroke: none;text-anchor:start;font-family: Courier New;font-style:italic;font-weight:normal" x="8.99584" y="212.002">
        <tspan x="8.99584" y="212.002">vt5</tspan>
      </text>
      <text font-size="7.90222" style="fill: #0000ff; fill-opacity: 1; stroke: none;text-anchor:start;font-family:Verdana;font-style:italic;font-weight:normal" x="32.8084" y="56.6916">
        <tspan x="32.8084" y="56.6916">#123</tspan>
      </text>
      <text font-size="7.90222" style="fill: #0000ff; fill-opacity: 1; stroke: none;text-anchor:start;font-family: Andale Mono;font-style:normal;font-weight:normal" x="33.3374" y="212.002">
        <tspan x="33.3374" y="212.002">#-17</tspan>
      </text>
    </g>
    <g>
      <path style="fill: #ffffff; fill-opacity: 1; stroke-opacity: 1; stroke-width: 2; stroke: #000000" fill-rule="evenodd" d="M 129.754 32.3332 L 159.904,32.3332 C 164.067,32.3332 167.442,37.2581 167.442,43.3332 C 167.442,49.4083 164.067,54.3332 159.904,54.3332 L 129.754,54.3332 C 125.591,54.3332 122.217,49.4083 122.217,43.3332 C 122.217,37.2581 125.591,32.3332 129.754,32.3332z"/>
      <text font-size="12.8" style="fill: #000000; fill-opacity: 1; stroke: none;text-anchor:middle;font-family:sans-serif;font-style:normal;font-weight:normal" x="144.829" y="47.3332">
        <tspan x="144.829" y="47.3332">ob1</tspan>
      </text>
    </g>
    <text font-size="12.8" style="fill: #000000; fill-opacity: 1; stroke: none;text-anchor:start;font-family:sans-serif;font-style:normal;font-weight:normal" x="142.163" y="45.3332">
      <tspan x="142.163" y="45.3332"></tspan>
    </text>
    <g>
      <path style="fill: #ffffff; fill-opacity: 1; stroke-opacity: 1; stroke-width: 2; stroke: #000000" fill-rule="evenodd" d="M 186.921 11.6499 L 217.071,11.6499 C 221.234,11.6499 224.608,16.5748 224.608,22.6499 C 224.608,28.7251 221.234,33.6499 217.071,33.6499 L 186.921,33.6499 C 182.758,33.6499 179.383,28.7251 179.383,22.6499 C 179.383,16.5748 182.758,11.6499 186.921,11.6499z"/>
      <text font-size="12.8" style="fill: #000000; fill-opacity: 1; stroke: none;text-anchor:middle;font-family:sans-serif;font-style:normal;font-weight:normal" x="201.996" y="26.6499">
        <tspan x="201.996" y="26.6499">ob2</tspan>
      </text>
    </g>
    <g>
      <rect style="fill: #ffffff; fill-opacity: 1; stroke-opacity: 1; stroke-width: 2; stroke: #000000" x="62.8292" y="4.15" width="40" height="40" rx="0" ry="0"/>
      <line style="fill: none; stroke-opacity: 1; stroke-width: 2; stroke: #000000" x1="66.8292" y1="4.15" x2="66.8292" y2="44.15"/>
      <line style="fill: none; stroke-opacity: 1; stroke-width: 2; stroke: #000000" x1="98.8292" y1="4.15" x2="98.8292" y2="44.15"/>
      <text font-size="12.8" style="fill: #000000; fill-opacity: 1; stroke: none;text-anchor:middle;font-family:sans-serif;font-style:normal;font-weight:normal" x="82.8292" y="28.15">
        <tspan x="82.8292" y="28.15">iv1</tspan>
      </text>
    </g>
    <g>
      <rect style="fill: #ffffff; fill-opacity: 1; stroke-opacity: 1; stroke-width: 2; stroke: #000000" x="177.163" y="65.4834" width="40" height="40" rx="0" ry="0"/>
      <line style="fill: none; stroke-opacity: 1; stroke-width: 2; stroke: #000000" x1="181.163" y1="65.4834" x2="181.163" y2="105.483"/>
      <line style="fill: none; stroke-opacity: 1; stroke-width: 2; stroke: #000000" x1="213.163" y1="65.4834" x2="213.163" y2="105.483"/>
      <text font-size="12.8" style="fill: #000000; fill-opacity: 1; stroke: none;text-anchor:middle;font-family:sans-serif;font-style:normal;font-weight:normal" x="197.163" y="89.4834">
        <tspan x="197.163" y="89.4834">iv2</tspan>
      </text>
    </g>
    <text font-size="12.8" style="fill: #000000; fill-opacity: 1; stroke: none;text-anchor:start;font-family:sans-serif;font-style:normal;font-weight:normal" x="122.663" y="90.8334">
      <tspan x="122.663" y="90.8334"></tspan>
    </text>
    <g>
      <rect style="fill: #ffffff; fill-opacity: 1; stroke-opacity: 1; stroke-width: 2; stroke: #000000" x="93.3292" y="80.8" width="40" height="40" rx="0" ry="0"/>
      <line style="fill: none; stroke-opacity: 1; stroke-width: 2; stroke: #000000" x1="97.3292" y1="80.8" x2="97.3292" y2="120.8"/>
      <line style="fill: none; stroke-opacity: 1; stroke-width: 2; stroke: #000000" x1="129.329" y1="80.8" x2="129.329" y2="120.8"/>
      <text font-size="12.8" style="fill: #000000; fill-opacity: 1; stroke: none;text-anchor:middle;font-family:sans-serif;font-style:normal;font-weight:normal" x="113.329" y="104.8">
        <tspan x="113.329" y="104.8">iv3</tspan>
      </text>
    </g>
    <g>
      <path style="fill: #ffffff; fill-opacity: 1; stroke-opacity: 1; stroke-width: 2; stroke: #000000" fill-rule="evenodd" d="M 132.754 145.167 L 176.692,145.167 C 170.101,153.167 167.904,157.167 167.904,165.167 C 167.904,173.167 170.101,177.167 176.692,185.167 L 132.754,185.167 C 126.163,177.167 123.967,173.167 123.967,165.167 C 123.967,157.167 126.163,153.167 132.754,145.167z"/>
      <text font-size="12.8" style="fill: #000000; fill-opacity: 1; stroke: none;text-anchor:middle;font-family:sans-serif;font-style:normal;font-weight:normal" x="150.329" y="169.167">
        <tspan x="150.329" y="169.167">tob1</tspan>
      </text>
    </g>
  </g>
</svg>
