<?xml version="1.0" encoding="utf-8"?>
<!-- RefPerSys logo by Gaëtan Tapon - http://refpersys.org/ -->
<!-- Generator: Adobe Illustrator 24.0.1, SVG Export Plug-In . SVG Version: 6.00 Build 0)  -->
<svg version="1.1" id="Calque_1" xmlns="http://www.w3.org/2000/svg" xmlns:xlink="http://www.w3.org/1999/xlink" x="0px" y="0px"
	 viewBox="0 0 380 100" style="enable-background:new 0 0 380 100;" xml:space="preserve">
<style type="text/css">
	.st0{fill:#5414FF;}
	.st1{fill:#00D1ED;}
	.st2{fill-rule:evenodd;clip-rule:evenodd;fill:#00D1ED;}
</style>
<g>
	<path class="st0" d="M120.26,28.18h6.98l0.65,6.33h0.22c2.59-4.61,6.33-7.2,10.08-7.2c1.8,0,2.95,0.29,4.03,0.72l-1.73,7.27
		c-1.08-0.29-1.94-0.43-3.38-0.43c-2.81,0-6.19,1.87-8.28,7.27v21.45h-8.56V28.18z"/>
	<path class="st0" d="M141.42,45.89c0-11.52,8.06-18.57,16.34-18.57c9.57,0,14.75,6.91,14.75,16.84c0,1.73-0.14,3.02-0.43,4.32
		h-22.31c0.86,5.9,4.61,9.36,10.22,9.36c3.02,0,5.76-0.86,8.21-2.45l2.88,5.33c-3.31,2.45-7.63,3.74-12.24,3.74
		C149.05,64.46,141.42,57.69,141.42,45.89z M165.03,42.15c0-5.18-2.45-8.21-7.05-8.21c-4.03,0-7.49,2.88-8.21,8.21H165.03z"/>
	<path class="st0" d="M178.63,34.95h-4.75v-6.33l4.75-0.43v-3.45c0-7.34,3.38-12.81,11.8-12.81c2.59,0,5.04,0.65,6.55,1.22
		l-1.73,6.12c-1.3-0.36-2.52-0.58-3.67-0.58c-2.95,0-4.46,1.87-4.46,5.9v3.6h6.84v6.77h-6.84v28.65h-8.49V34.95z"/>
	<path class="st0" d="M197.2,28.18h6.98l0.65,3.74h0.22c3.02-2.52,6.77-4.61,10.65-4.61c8.78,0,13.89,7.13,13.89,18.07
		c0,12.09-7.2,19.07-15.04,19.07c-3.17,0-6.26-1.44-9.07-3.89l0.29,5.9v11.01h-8.56V28.18z M220.88,45.46
		c0-6.98-2.3-11.08-7.56-11.08c-2.52,0-4.89,1.22-7.56,3.89V54.6c2.45,2.09,4.89,2.81,6.91,2.81
		C217.28,57.4,220.88,53.37,220.88,45.46z"/>
	<path class="st0" d="M232.69,45.89c0-11.52,8.06-18.57,16.34-18.57c9.57,0,14.75,6.91,14.75,16.84c0,1.73-0.14,3.02-0.43,4.32
		h-22.31c0.86,5.9,4.61,9.36,10.22,9.36c3.02,0,5.76-0.86,8.21-2.45l2.88,5.33c-3.31,2.45-7.63,3.74-12.24,3.74
		C240.32,64.46,232.69,57.69,232.69,45.89z M256.3,42.15c0-5.18-2.45-8.21-7.05-8.21c-4.03,0-7.49,2.88-8.21,8.21H256.3z"/>
	<path class="st0" d="M268.68,28.18h6.98l0.65,6.33h0.22c2.59-4.61,6.33-7.2,10.08-7.2c1.8,0,2.95,0.29,4.03,0.72l-1.73,7.27
		c-1.08-0.29-1.94-0.43-3.38-0.43c-2.81,0-6.19,1.87-8.28,7.27v21.45h-8.56V28.18z"/>
	<path class="st0" d="M288.98,59.28l3.74-4.82c3.1,2.52,6.33,3.6,9.93,3.6c3.74,0,5.54-1.73,5.54-4.1c0-2.95-3.46-4.1-7.41-5.54
		c-5.11-1.87-9.86-4.82-9.86-10.44c0-6.19,5.04-10.65,12.96-10.65c4.82,0,8.93,1.8,11.8,4.32l-3.67,4.82
		c-2.52-1.87-5.11-2.74-7.92-2.74c-3.53,0-5.11,1.73-5.11,3.81c0,2.59,2.52,3.6,6.98,5.11c5.47,1.87,10.29,4.68,10.29,10.8
		c0,6.12-4.89,11.01-13.89,11.01C297.47,64.46,292.43,62.59,288.98,59.28z"/>
	<path class="st0" d="M318.49,77.27l1.66-6.41c1.01,0.29,1.66,0.36,2.45,0.36c3.67,0,5.83-2.45,6.98-5.9l0.65-2.23l-13.89-34.91
		h8.64l5.97,17.2c1.08,3.1,2.09,6.62,3.09,10h0.29c0.86-3.31,1.8-6.77,2.66-10l5.18-17.2h8.21l-12.74,36.92
		c-2.95,8.06-6.69,12.96-14.47,12.96C321.23,78.06,319.86,77.77,318.49,77.27z"/>
	<path class="st0" d="M350.09,59.28l3.74-4.82c3.1,2.52,6.33,3.6,9.93,3.6c3.74,0,5.54-1.73,5.54-4.1c0-2.95-3.46-4.1-7.41-5.54
		c-5.11-1.87-9.86-4.82-9.86-10.44c0-6.19,5.04-10.65,12.96-10.65c4.82,0,8.93,1.8,11.8,4.32l-3.67,4.82
		c-2.52-1.87-5.11-2.74-7.92-2.74c-3.53,0-5.11,1.73-5.11,3.81c0,2.59,2.52,3.6,6.98,5.11c5.47,1.87,10.29,4.68,10.29,10.8
		c0,6.12-4.89,11.01-13.89,11.01C358.58,64.46,353.55,62.59,350.09,59.28z"/>
</g>
<g>
	<path class="st0" d="M81.65,73.53L64.4,73.49l0.01-4.61l17.11,0.05c0.95-0.06,2.61-1.62,2.61-2.89V51.27h5.84
		c0.06,0,0.25,0,0.35-0.22c0.11-0.22,0-0.37-0.04-0.41c-7.6-11.36-7.6-11.78-7.6-12.61c0-7.92-3.16-15.3-8.9-20.77
		c-5.73-5.47-13.26-8.26-21.21-7.9c-0.95,0.05-1.94,0.15-2.92,0.3l-0.7-4.56c1.14-0.17,2.29-0.29,3.4-0.34
		c9.2-0.45,17.95,2.82,24.61,9.17c6.54,6.23,10.19,14.6,10.32,23.6c0.78,1.39,3.91,6.2,6.75,10.46c1.07,1.42,1.26,3.43,0.4,5.14
		c-0.85,1.71-2.57,2.77-4.48,2.77h-1.23v10.16C88.74,69.67,85.29,73.32,81.65,73.53z"/>
	<path class="st0" d="M16.67,73.53c-3.79-0.22-7.23-3.86-7.23-7.5V55.88H8.21c-1.91,0-3.63-1.06-4.48-2.77
		c-0.85-1.71-0.67-3.72,0.47-5.24c2.78-4.16,5.9-8.96,6.68-10.35c0.13-9,3.79-17.37,10.32-23.6c6.65-6.35,15.39-9.61,24.6-9.17
		c1.12,0.05,2.26,0.17,3.4,0.34l-0.7,4.56c-0.99-0.15-1.97-0.25-2.93-0.3c-7.95-0.37-15.47,2.43-21.2,7.9
		c-5.74,5.47-8.9,12.85-8.9,20.77c0,0.83,0,1.25-7.53,12.51c-0.11,0.15-0.22,0.3-0.11,0.52c0.11,0.22,0.29,0.22,0.35,0.22h5.84
		v14.77c0,1.27,1.67,2.83,2.75,2.89l16.96-0.05l0.01,4.61L16.67,73.53z"/>
</g>
<path class="st1" d="M64.16,73.31H34.02V61.47c0.04-2.33-0.39-3.76-1.38-4.67c-6.69-6.15-10.29-14.89-9.88-23.98
	c0.31-6.78,2.94-13.37,7.42-18.54c4.75-5.49,11.64-8.65,18.91-8.65c7.27,0,14.16,3.15,18.91,8.65c4.47,5.18,7.11,11.76,7.42,18.54
	c0.42,9.09-3.19,17.83-9.88,23.98c-0.99,0.91-1.42,2.34-1.38,4.63V73.31z M38.63,68.7h20.92v-7.23c-0.06-3.58,0.88-6.23,2.87-8.06v0
	c5.69-5.22,8.74-12.65,8.39-20.37c-0.26-5.75-2.5-11.34-6.3-15.74c-3.87-4.48-9.5-7.05-15.42-7.05c-5.93,0-11.55,2.57-15.42,7.05
	c-3.8,4.4-6.04,9.99-6.3,15.74c-0.35,7.73,2.71,15.15,8.39,20.37c1.99,1.83,2.93,4.48,2.87,8.1V68.7z"/>
<rect x="38.58" y="78.82" class="st1" width="21.02" height="4.61"/>
<rect x="40.98" y="89.55" class="st1" width="16.21" height="4.61"/>
<rect x="38.58" y="78.82" class="st1" width="21.02" height="4.61"/>
<rect x="40.98" y="89.55" class="st1" width="16.21" height="4.61"/>
<path class="st2" d="M44.18,43.2c1.18-0.12,1.34-1.38,0.78-1.92c-0.46-0.45-3-2.33-3.66-3.07c-0.31-0.34-0.72-0.51-0.9-0.9
	c-0.41-0.89-0.69-2.16-0.18-3.07c0.09-0.16,0.15-0.09,0.08,0.25c-0.4,1.94,0.86,3.53,1.14,2.72c0.19-0.56,0.01-1.57,0.12-2.37
	c0.18-1.41,1.47-4.13,2.03-4.28c-0.87-1.61,1.02-2.88,1-4.3c-0.02-0.92,0.81,1.13,1.64,1.57c0.93,0.49,1.94-0.92,3.39-1.63
	c0.41-0.2,0.93-0.43,0.9-0.6c-0.17-0.83-1.9,1.02-3.44,1.08c-0.7,0.03-0.97-0.14-1.24-0.4c-0.82-0.79,0.08-0.13,1.31-0.35
	c0.54-0.1,0.73-0.19,1.3-0.42c0.58-0.23,1.24-0.58,1.89-0.75c0.45-0.12,0.42-0.46,0.24-0.57c-0.1-0.06-0.25-0.05-0.37,0.15
	c-0.28,0.48-1.6,0.76-2.01,0.89c-0.53,0.16-1.11,0.31-1.89,0.28c-1.18-0.05-0.9-0.59-1.74-1.07c-0.25-0.14-0.18-0.51,0.15-0.84
	c0.17-0.17,0.64-0.27,0.88-0.66c0.03-0.05,0.33-0.37,0.57-0.53c0.08-0.06,0.09-1.49-0.65-1.52c-0.63-0.03-0.8,0.46-0.78,0.94
	c0.03,0.48,0.28,0.88,0.45,0.88c0.33,0,0.02,0.36-0.16,0.42c-0.27,0.09-0.65-1.08-0.61-1.64c0.05-0.58,0.35-1.62,1.09-1.6
	c0.66,0.02,1.15,0.85,1.12,2.29c0,0.24,1.08-0.12,1.44,0.27c0.26,0.27-0.88-2.55,1.66-2.74c0.67,0.13,1.31,0.35,1.58,1.89
	c-0.1,0.16,0.17,1.24-0.25,1.36c-0.51,0.16-0.82-0.02-0.52-0.5c0.2-0.48,0-1.71-1.02-1.64c-1.02,0.07-0.89,1.89-0.61,1.92
	c0.28,0.04,0.99,0.54,1.48,0.63c1.62,0.31,0.43,1.24,0.64,2.36c0.24,1.27,1.07,0.93,1.82,4.29c0.16,0.2,0.78,0.4,1.38,2.98
	c0.54,2.32-0.23,4.01,1.08,3.87c0.29-0.03,0.73-0.11,0.91-0.77c0.49-1.72-0.25-3.77-0.99-5.15c-0.43-0.81-0.84-1.35-1.06-1.54
	c0.85,0.5,1.94,2.11,2.19,3.3c0.33,1.57,0.57,2.23,0.07,3.89c0.29,0.14,1,0.45,1,0.79c-0.75-0.61-3.03-0.72-3.09,0.74
	c-0.39,0.01-0.68,0.04-0.94,0.34c-0.92,1.09-0.07,3.28-0.16,4.45c-0.08,1.03-0.37,2.06-0.53,3.09c-0.55-0.02-0.49-0.42-0.32-0.98
	c0.15-0.5,0.4-1.12,0.42-1.71c0.01-0.54-0.04-0.88-0.18-0.96c-0.14-0.08-0.35,0.09-0.64,0.56c-0.63,1.01-1.99,1.46-3.26,1.61
	c-1.27,0.16-2.45,0.03-3.07-0.67c-0.21-0.24-0.57,0.07-0.61,0.13c-0.06,0.09,0.21,0.25,0.41,0.61c0.29,0.53,0.57,1.34-0.12,1.71
	C45.37,44.45,44.78,44.34,44.18,43.2L44.18,43.2z M43.72,43.15c0.45,0.72,2.06,3.73-0.75,4.12c-0.94,0.13-2.45-0.55-3.92-0.91
	c-1.32-0.32-2.65-0.51-3.4-0.72c-0.45-0.13-0.64-0.29-0.68-0.48c-0.1-0.5,0.55-1.2,0.58-1.79c0.03-0.59-0.22-0.9-0.42-1.38
	c-0.2-0.48-0.26-0.85-0.09-1.06c0.13-0.16,0.39-0.23,0.81-0.19c0.53,0.05,1.18-0.06,1.52-0.27c0.58-0.36,0.86-1.08,0.59-1.96
	c0,0.86-0.28,1.18-0.99,1.58c-0.67,0.37-1.69,0.07-2.16,0.48c-0.57,0.49,0.2,1.76,0.14,2.7c-0.05,0.72-0.8,1.53-0.46,2.25
	c0.34,0.72,1.9,0.8,3.54,1.14c2.32,0.49,3.67,1.33,4.75,1.37c1.56,0.06,1.8-1.55,4.26-1.57c0.72-0.04,1.42-0.06,2.12-0.07
	c0.79-0.01,1.59,0,2.4,0.02c1.63,0.04,1.07,0.89,2.13,1.44c0.89,0.46,2.5,0.28,2.89-0.09c0.52-0.5,1.92-1.69,2.99-2.23
	c1.34-0.67,4.47-1.83,2.2-3.24c-0.53-0.33-1.79-0.68-1.89-3.09c-0.47,0.42-0.42,2.67,0.91,3.11c1.48,0.5,2.41,1.33-0.35,2.27
	c-1.82,0.62-2.13,0.82-3.58,2.02c-1.46,1.22-3.63,0.73-3.25-1.83c0.2-1.33,0.31-2.43-0.02-3.59c-0.16-0.57-0.24-1.29-0.13-1.8
	c0.22-0.99,0.75-1.29,1.28-0.34c0.33,0.6,0.45,1.29,1.63,1.35c1.85,0.09,2.22-1.79,2.82-1.88c0.4-0.06,0.79-1.18,0.49-2.99
	c-0.32-1.94-1.46-5-2.93-6.55c-1.22-1.29-1.98-2.42-2.46-4.03c-0.4-1.36-0.63-2.68-0.55-3.94c0.11-1.63-0.8-3.91-2.24-4.98
	c-0.9-0.67-2.32-1.03-3.6-1.01c-0.72,0.01-1.4,0.11-1.92,0.4c-2.14,1.16-2.44,2.82-2.41,4.72c0.03,1.78,0.09,3.81,0.29,5.74
	c-0.24,0.89-1.49,2.57-2.28,3.59c-1.07,1.06-1.61,3.11-2.31,4.9c-0.37,0.95-0.99,1.38-1.05,2.61c-0.01,0.34,0,1.23,0.33,0.98
	C39.78,36.96,41.35,39.41,43.72,43.15L43.72,43.15z M46.53,22.59c-0.59-0.04-0.63,0.38-0.43,0.37
	C46.3,22.96,46.17,22.63,46.53,22.59L46.53,22.59z M45.52,21.51c0.07-0.02,0.17,0.1,0.14,0.27c-0.04,0.23-0.02,0.37,0.14,0.37
	c0.03,0,0.05,0,0.06-0.06c0.08-0.46-0.16-0.79-0.26-0.82C45.38,21.21,45.41,21.54,45.52,21.51L45.52,21.51z M49.8,21.32
	c0.15,0.04,0.29,0.3,0.32,0.58c0,0.03,0.19-0.04,0.2-0.1c0.01-0.45-0.37-0.66-0.47-0.65C49.62,21.17,49.68,21.28,49.8,21.32
	L49.8,21.32z M47.61,22.65c0.53-0.25,0.72,0.14,0.54,0.2C47.96,22.91,47.95,22.56,47.61,22.65L47.61,22.65z"/>
</svg>
